<svg width="148" height="32" viewBox="0 0 148 32" fill="none" xmlns="http://www.w3.org/2000/svg">
<g clip-path="url(#clip0_174_5179)">
<path d="M39.4213 22.9761C39.3868 22.9428 39.3591 22.9025 39.3401 22.8578C39.3211 22.8131 39.3111 22.7648 39.3107 22.7159V8.84667C39.3091 8.79591 39.3182 8.74541 39.3373 8.69862C39.3564 8.65184 39.3851 8.60992 39.4213 8.57571C39.4893 8.50847 39.5797 8.47097 39.6738 8.47104H48.118C48.1663 8.46851 48.2146 8.47649 48.2597 8.49447C48.3049 8.51246 48.3459 8.54004 48.3801 8.57544C48.4143 8.61084 48.441 8.65327 48.4584 8.7C48.4757 8.74672 48.4835 8.79667 48.481 8.84667V10.6193C48.4808 10.7163 48.4446 10.8094 48.3799 10.8796C48.3469 10.9171 48.3063 10.9469 48.2611 10.9666C48.2159 10.9864 48.1671 10.9957 48.118 10.994H42.5761C42.4447 10.993 42.318 11.0453 42.2235 11.1398C42.1737 11.1875 42.1344 11.2458 42.1083 11.3106C42.0822 11.3754 42.0699 11.4453 42.0722 11.5155V14.0394C42.0756 14.1766 42.1297 14.3073 42.2235 14.4043C42.3173 14.5013 42.4435 14.5574 42.5761 14.5609H46.3246C46.3891 14.5601 46.4531 14.5737 46.5121 14.6007C46.5712 14.6277 46.6239 14.6675 46.6668 14.7174C46.7607 14.8218 46.8113 14.9602 46.8077 15.1028V16.7708C46.8114 16.9134 46.7608 17.0519 46.6668 17.1563C46.6239 17.2061 46.5711 17.2459 46.5121 17.2729C46.4531 17.2999 46.3891 17.3135 46.3246 17.3128H42.4145C42.3207 17.3129 42.2306 17.3504 42.163 17.4175C42.1265 17.4516 42.0978 17.4935 42.0787 17.5403C42.0596 17.5871 42.0506 17.6377 42.0524 17.6885V22.7149C42.0524 22.8119 42.0161 22.9052 41.9512 22.9751C41.9183 23.0129 41.8778 23.0428 41.8326 23.0627C41.7873 23.0827 41.7385 23.0922 41.6893 23.0906H39.6738C39.6264 23.0903 39.5795 23.08 39.5361 23.0603C39.4927 23.0406 39.4537 23.012 39.4213 22.9761Z" fill="#1C232E"/>
<path d="M49.6966 19.1379C48.9073 17.3371 48.8173 15.2912 49.4451 13.4237C50.0712 11.6085 51.3433 10.1091 53.0017 9.23172C53.8757 8.78358 54.8288 8.52462 55.8029 8.47062H55.8435C55.895 8.4698 55.946 8.48056 55.993 8.50218C56.04 8.52381 56.0819 8.55577 56.1158 8.59584C56.1914 8.68263 56.2375 8.79254 56.2472 8.9089V10.7236C56.2472 10.9877 56.1064 11.1338 55.8246 11.1619C55.2182 11.2179 54.6287 11.3988 54.0908 11.6941C53.5489 11.9851 53.0744 12.3943 52.7001 12.8935C51.9918 13.7622 51.606 14.8639 51.612 16.0005C51.6119 16.695 51.7563 17.3813 52.0355 18.0128C52.3128 18.6527 52.7261 19.2195 53.2446 19.671C53.9171 20.2557 54.7362 20.6305 55.6066 20.7517C56.477 20.873 57.3628 20.7357 58.1607 20.3558C58.775 20.0672 59.3139 19.6312 59.7329 19.0841C60.0893 18.6507 60.3658 18.1533 60.5488 17.6166C60.7286 17.091 60.8207 16.5376 60.821 15.98C60.8267 15.2119 60.6539 14.4536 60.3171 13.769C60.252 13.64 60.2173 13.4969 60.216 13.3513C60.2183 13.2576 60.2413 13.1657 60.2833 13.0826C60.3252 12.9995 60.385 12.9274 60.458 12.8719C60.5658 12.8022 60.7741 12.6564 61.0829 12.4347C61.3917 12.2129 61.5865 12.0737 61.6671 12.0169C61.7566 11.9535 61.8614 11.9172 61.9697 11.9122C62.0711 11.9097 62.171 11.9381 62.257 11.9937C62.3431 12.0494 62.4114 12.1299 62.4537 12.2253C63.0934 13.3729 63.4272 14.6757 63.4208 16.0005C63.4218 16.871 63.2785 17.7353 62.9973 18.5558C62.7158 19.3818 62.2924 20.1483 61.7475 20.8186C61.0963 21.6887 60.2482 22.3797 59.2782 22.8309C58.3081 23.2928 57.2526 23.5311 56.1848 23.5294C55.3464 23.5307 54.5143 23.379 53.7268 23.0814C52.9472 22.7907 52.2286 22.348 51.6101 21.7773C50.7892 21.0569 50.1353 20.1549 49.6966 19.1379Z" fill="#1C232E"/>
<path d="M66.2822 22.9865C66.2458 22.9523 66.2171 22.9104 66.198 22.8636C66.1789 22.8168 66.1699 22.7663 66.1716 22.7155V15.437C66.171 15.3848 66.1804 15.333 66.1994 15.2846C66.2185 15.2363 66.2466 15.1923 66.2823 15.1554C66.318 15.1185 66.3605 15.0893 66.4072 15.0696C66.4539 15.05 66.504 15.0402 66.5545 15.0408H70.7265C70.9782 15.0467 71.2286 14.9998 71.4624 14.903C71.6961 14.8061 71.9086 14.6613 72.0869 14.4773C72.2647 14.3033 72.4057 14.0931 72.5011 13.8599C72.5964 13.6267 72.644 13.3756 72.6409 13.1224C72.6454 12.8658 72.5985 12.611 72.5031 12.3741C72.4078 12.1373 72.2661 11.9234 72.0869 11.7459C71.9085 11.5621 71.696 11.4175 71.4622 11.3208C71.2284 11.2242 70.9782 11.1774 70.7265 11.1834H69.0333C68.9642 11.1818 68.8954 11.1948 68.8314 11.2217C68.7673 11.2487 68.7093 11.2889 68.6608 11.3399C68.6128 11.3868 68.5747 11.4434 68.5487 11.5062C68.5226 11.569 68.5093 11.6366 68.5095 11.7049V12.2263C68.5107 12.3623 68.4601 12.4934 68.3687 12.5912C68.3227 12.6426 68.2665 12.6832 68.2041 12.7102C68.1416 12.7372 68.0743 12.75 68.0066 12.7477H66.6755C66.5428 12.7445 66.4165 12.6885 66.3226 12.5914C66.2288 12.4943 66.1747 12.3635 66.1716 12.2263V8.86684C66.171 8.81463 66.1804 8.7628 66.1994 8.71443C66.2185 8.66606 66.2466 8.62214 66.2823 8.58522C66.318 8.54829 66.3605 8.51912 66.4072 8.49944C66.4539 8.47976 66.504 8.46998 66.5545 8.47063H70.7265C71.5241 8.46675 72.3089 8.67821 73.0034 9.08412C73.6979 9.49004 74.2781 10.0764 74.6867 10.7853C75.0638 11.4443 75.2745 12.191 75.2991 12.9565C75.3237 13.722 75.1615 14.4815 74.8276 15.1651C74.5188 15.7964 74.0741 16.346 73.5277 16.7714C73.4918 16.7923 73.4617 16.8225 73.4405 16.859C73.4193 16.8956 73.4076 16.9372 73.4067 16.9798C73.4052 17.0498 73.4119 17.1198 73.4265 17.1881L75.7645 22.5893C75.8133 22.671 75.841 22.7643 75.8448 22.8603C75.8448 23.0135 75.7503 23.0898 75.5612 23.0892H73.9077C73.7953 23.0942 73.6829 23.08 73.5749 23.0471C73.4888 23.0048 73.4213 22.9304 73.3859 22.8387L71.2899 17.9591C71.2585 17.8844 71.2011 17.8247 71.1292 17.7918C70.9979 17.7562 70.862 17.742 70.7265 17.7497H69.0134C68.8854 17.743 68.7577 17.7681 68.641 17.8231C68.5938 17.8556 68.5565 17.9012 68.5333 17.9547C68.51 18.0081 68.5018 18.0673 68.5095 18.1254V22.7135C68.5112 22.7643 68.5022 22.8148 68.4831 22.8616C68.464 22.9084 68.4352 22.9504 68.3989 22.9845C68.3247 23.0545 68.2271 23.092 68.1267 23.0892H66.5545C66.4543 23.0926 66.3568 23.0558 66.2822 22.9865Z" fill="#1C232E"/>
<path d="M78.6969 22.9395C78.6317 22.8693 78.5954 22.7756 78.5957 22.6783V8.85114C78.5959 8.75418 78.6321 8.66098 78.6969 8.5909C78.7267 8.55474 78.7639 8.52579 78.8057 8.50602C78.8475 8.48625 78.8929 8.47617 78.9389 8.47646H80.9138C80.9786 8.47596 81.042 8.49551 81.0959 8.53265C81.1498 8.56979 81.1918 8.6228 81.2163 8.68482L84.2794 13.9402C84.3093 13.988 84.3467 14.0303 84.39 14.0654C84.4543 14.1224 84.537 14.1522 84.6216 14.1486H84.6623C84.7026 14.151 84.7428 14.1433 84.7797 14.1263C84.8165 14.1093 84.8489 14.0834 84.874 14.0508C84.9091 14.0082 84.9408 13.9627 84.9686 13.9148L88.0118 8.70047C88.0415 8.63641 88.0869 8.58151 88.1434 8.54119C88.2 8.50087 88.2658 8.47653 88.3342 8.47058H90.3299C90.3758 8.47042 90.4213 8.48056 90.463 8.50032C90.5048 8.52008 90.542 8.54899 90.5719 8.58505C90.6364 8.6553 90.6726 8.74836 90.6731 8.84526V22.6724C90.673 22.7697 90.6368 22.8632 90.5719 22.9336C90.542 22.9697 90.5049 22.9987 90.4631 23.0184C90.4213 23.0382 90.3758 23.0483 90.3299 23.0481H88.355C88.3066 23.0507 88.2583 23.0429 88.213 23.0249C88.1678 23.007 88.1268 22.9794 88.0925 22.944C88.0583 22.9086 88.0316 22.866 88.0143 22.8193C87.997 22.7725 87.9894 22.7224 87.992 22.6724V14.3931C87.992 14.2542 87.9645 14.1848 87.9116 14.1848C87.8587 14.1848 87.7972 14.2405 87.7301 14.3511L85.6134 17.4581C85.5321 17.5959 85.4262 17.7164 85.3014 17.8132C85.1594 17.8803 85.0032 17.909 84.8476 17.8964H84.5053C84.3285 17.9074 84.1513 17.8862 83.9816 17.8338C83.8647 17.7722 83.7666 17.6784 83.698 17.5628L81.5236 14.3716C81.4432 14.2464 81.3827 14.1838 81.3421 14.1838C81.3014 14.1838 81.2617 14.2464 81.2617 14.3716V22.6714C81.2618 22.7687 81.2256 22.8623 81.1605 22.9326C81.1276 22.9703 81.087 23 81.0418 23.0198C80.9966 23.0395 80.9478 23.0489 80.8987 23.0471H78.9408C78.895 23.0486 78.8495 23.0397 78.8073 23.0211C78.7652 23.0025 78.7275 22.9747 78.6969 22.9395Z" fill="#1C232E"/>
<path d="M93.4698 23.0109C93.45 22.9846 93.4361 22.9542 93.4291 22.9217C93.4221 22.8892 93.4221 22.8555 93.4291 22.8231L96.9961 8.78755C97.0248 8.70082 97.0774 8.62465 97.1474 8.56842C97.2171 8.5056 97.3064 8.47087 97.3988 8.47058H101.591C101.678 8.47271 101.762 8.50169 101.833 8.55376C101.907 8.60246 101.964 8.67588 101.993 8.76212L105.56 22.7976V22.8602C105.56 23.0129 105.493 23.0901 105.359 23.0901H103.384C103.293 23.0851 103.205 23.0509 103.133 22.9923C103.094 22.9685 103.061 22.9367 103.035 22.899C103.009 22.8613 102.991 22.8185 102.981 22.7732L101.994 18.8943C101.967 18.7679 101.895 18.6565 101.793 18.5812C101.695 18.5016 101.574 18.4576 101.45 18.456H97.5397C97.4155 18.4578 97.2952 18.5018 97.1975 18.5812C97.0953 18.6562 97.0235 18.7677 96.9961 18.8943L96.0082 22.7526C96.0011 22.8015 95.9839 22.8481 95.9578 22.8895C95.9317 22.9309 95.8973 22.9659 95.8569 22.9923C95.7848 23.0509 95.697 23.0851 95.6054 23.0901H93.6305C93.5995 23.0916 93.5686 23.0851 93.5406 23.0713C93.5126 23.0575 93.4883 23.0367 93.4698 23.0109ZM100.826 16.2323C100.885 16.2351 100.945 16.2234 100.999 16.1981C101.053 16.1727 101.101 16.1345 101.138 16.0866C101.174 16.0405 101.199 15.9864 101.212 15.9285C101.224 15.8706 101.223 15.8104 101.209 15.753L100.08 11.4573C100.071 11.398 100.05 11.3413 100.019 11.2908C99.9879 11.2402 99.9468 11.197 99.8985 11.1638C99.801 11.084 99.6806 11.0399 99.5562 11.0386H99.4352C99.3109 11.0399 99.1905 11.084 99.093 11.1638C99.0446 11.1969 99.0034 11.2401 98.9721 11.2906C98.9408 11.3412 98.9202 11.398 98.9115 11.4573L97.8035 15.753L97.7827 15.8577C97.7807 15.9076 97.7887 15.9574 97.8061 16.004C97.8235 16.0506 97.8499 16.093 97.8838 16.1286C97.9217 16.1652 97.9663 16.1934 98.0151 16.2114C98.0639 16.2295 98.1158 16.2369 98.1675 16.2333L100.826 16.2323Z" fill="#1C232E"/>
<path d="M108.443 22.965C108.4 22.9259 108.366 22.8778 108.344 22.8239C108.321 22.77 108.31 22.7117 108.311 22.6529V8.90893C108.317 8.79482 108.364 8.68711 108.442 8.60629C108.52 8.52547 108.624 8.47719 108.735 8.47066H110.815C110.871 8.46951 110.928 8.48107 110.98 8.50454C111.032 8.52801 111.078 8.56285 111.116 8.60665C111.193 8.68735 111.236 8.79574 111.237 8.90893V19.9C111.238 20.0132 111.281 20.1217 111.358 20.2023C111.393 20.2449 111.436 20.2792 111.485 20.3026C111.534 20.3261 111.588 20.3383 111.642 20.3383H116.52C116.576 20.3366 116.632 20.3469 116.684 20.3685C116.736 20.39 116.783 20.4224 116.823 20.4635C116.861 20.5012 116.892 20.5467 116.912 20.5972C116.933 20.6477 116.944 20.7021 116.944 20.757V22.6549C116.945 22.7127 116.935 22.7702 116.914 22.8238C116.893 22.8775 116.862 22.9263 116.822 22.9671C116.782 23.008 116.735 23.0401 116.683 23.0616C116.631 23.0831 116.576 23.0935 116.52 23.0921H108.74C108.685 23.0923 108.63 23.0812 108.579 23.0594C108.528 23.0376 108.482 23.0055 108.443 22.965Z" fill="#1C232E"/>
<path d="M119.358 20.9652C118.707 20.2184 118.209 19.3419 117.896 18.3894L117.856 18.2847C117.614 17.5314 117.491 16.7424 117.494 15.9486C117.495 15.082 117.638 14.2219 117.917 13.405C118.199 12.5714 118.63 11.8001 119.187 11.1315C119.837 10.3855 120.595 9.74883 121.434 9.24436C122.324 8.77039 123.306 8.51022 124.306 8.48324H124.367C125.502 8.41416 126.637 8.62857 127.676 9.10837C128.39 9.44398 129.047 9.89836 129.62 10.4535C130.173 10.9501 130.634 11.5468 130.981 12.2144C131.609 13.3432 131.935 14.6246 131.926 15.927C131.927 16.7019 131.811 17.4721 131.584 18.2104C131.356 18.9527 131.016 19.653 130.576 20.2853C130.256 20.7531 129.888 21.1832 129.477 21.5678C129.032 21.9711 128.542 22.3177 128.017 22.6C126.605 23.3686 124.985 23.6251 123.416 23.3284C121.846 23.0317 120.419 22.1989 119.361 20.9633L119.358 20.9652ZM128.135 19.1192C128.456 18.7536 128.721 18.3388 128.921 17.8895C129.184 17.2731 129.321 16.6069 129.323 15.9329C129.325 15.0202 129.073 14.1261 128.598 13.3571C128.124 12.5663 127.428 11.9441 126.603 11.5736C126 11.2987 125.348 11.1564 124.688 11.1559C124.106 11.1546 123.528 11.2678 122.986 11.4895C122.442 11.7121 121.945 12.0446 121.526 12.4678L121.183 12.8435C120.83 13.2844 120.554 13.7856 120.367 14.3246C119.957 15.5118 120.012 16.8174 120.518 17.9638C120.795 18.6036 121.216 19.165 121.747 19.6005C122.44 20.2021 123.288 20.5817 124.186 20.6929C125.085 20.8041 125.995 20.6421 126.806 20.2266C127.307 19.939 127.756 19.5644 128.135 19.1192Z" fill="#1C232E"/>
<path d="M135.442 20.9652C134.791 20.2184 134.293 19.3419 133.98 18.3894L133.94 18.2847C133.697 17.5315 133.575 16.7425 133.577 15.9485C133.578 15.082 133.721 14.2219 134 13.405C134.282 12.5714 134.712 11.8001 135.27 11.1314C135.92 10.3856 136.678 9.74891 137.517 9.24434C138.407 8.77043 139.389 8.51026 140.389 8.48321H140.45C141.585 8.41421 142.72 8.62861 143.759 9.10835C144.473 9.44414 145.13 9.89851 145.703 10.4535C146.256 10.9501 146.717 11.5468 147.064 12.2144C147.692 13.3432 148.018 14.6246 148.009 15.927C148.01 16.7019 147.894 17.4721 147.667 18.2103C147.439 18.9527 147.099 19.6531 146.659 20.2853C146.339 20.7531 145.971 21.1832 145.56 21.5678C145.115 21.9712 144.625 22.3177 144.1 22.5999C142.688 23.3686 141.068 23.6251 139.499 23.3284C137.929 23.0317 136.502 22.1989 135.444 20.9633L135.442 20.9652ZM144.219 19.1192C144.54 18.7535 144.805 18.3387 145.005 17.8895C145.268 17.2731 145.405 16.6069 145.407 15.9329C145.409 15.0202 145.157 14.1262 144.682 13.357C144.208 12.5662 143.512 11.944 142.686 11.5736C142.083 11.2986 141.431 11.1564 140.771 11.1559C140.189 11.1546 139.611 11.2678 139.069 11.4895C138.525 11.7121 138.028 12.0447 137.609 12.4678L137.266 12.8434C136.913 13.2845 136.637 13.7857 136.45 14.3246C136.04 15.5118 136.095 16.8174 136.601 17.9638C136.878 18.6035 137.299 19.1648 137.83 19.6005C138.523 20.2021 139.371 20.5817 140.269 20.6929C141.168 20.8041 142.078 20.642 142.889 20.2266C143.39 19.9391 143.84 19.5645 144.219 19.1192Z" fill="#1C232E"/>
<path d="M0 6.45378C0 2.88946 2.79733 0 6.24802 0H24.7317C28.1824 0 30.9798 2.88946 30.9798 6.45378V25.5462C30.9798 29.1105 28.1824 32 24.7317 32H6.24802C2.79733 32 0 29.1105 0 25.5462V6.45378Z" fill="#F27000"/>
<path d="M21.8582 6.99158H9.12112C7.96557 6.99158 7.02881 7.95473 7.02881 9.14284C7.02881 10.3309 7.96557 11.2941 9.12112 11.2941H21.8582C23.0138 11.2941 23.9505 10.3309 23.9505 9.14284C23.9505 7.95473 23.0138 6.99158 21.8582 6.99158Z" fill="white"/>
<path d="M15.3812 13.8487H9.08975C7.95152 13.8487 7.02881 14.8118 7.02881 16C7.02881 17.1881 7.95152 18.1512 9.08975 18.1512H15.3812C16.5195 18.1512 17.4422 17.1881 17.4422 16C17.4422 14.8118 16.5195 13.8487 15.3812 13.8487Z" fill="white"/>
<path d="M9.11325 20.7059C9.66547 20.7068 10.1947 20.9341 10.5849 21.3378C10.975 21.7415 11.1942 22.2886 11.1942 22.859C11.1932 23.4287 10.9737 23.9749 10.5836 24.3778C10.1936 24.7807 9.66486 25.0074 9.11325 25.0084C8.56104 25.0084 8.03139 24.7821 7.64058 24.3791C7.24977 23.9761 7.02975 23.4294 7.02881 22.859V22.859C7.02881 22.2879 7.24842 21.7403 7.63933 21.3365C8.03024 20.9327 8.56043 20.7059 9.11325 20.7059V20.7059Z" fill="white"/>
</g>
<defs>
<clipPath id="clip0_174_5179">
<rect width="148" height="32" fill="white"/>
</clipPath>
</defs>
</svg>
